<svg xmlns="http://www.w3.org/2000/svg" viewBox="0 0 512 512">
  <defs>
    <linearGradient id="sageBg" x1="0%" y1="0%" x2="100%" y2="100%">
      <stop offset="0%" stop-color="#7FA38E" />
      <stop offset="100%" stop-color="#5B7C68" />
    </linearGradient>
  </defs>
  <rect width="512" height="512" rx="128" fill="#F4F8F2" />
  <circle cx="256" cy="256" r="176" fill="url(#sageBg)" />
  <path
    d="M256 140c50 0 90 40 90 90s-40 90-90 90c-6 0-12-1-18-2v54h-34v-66c0-9 7-16 16-16h22c35 0 64-29 64-64s-29-64-64-64-64 29-64 64h-34c0-50 40-90 90-90z"
    fill="#F9FBF8"
  />
  <circle cx="256" cy="256" r="10" fill="#F9FBF8" />
</svg>
